<?xml version="1.0" encoding="UTF-8"?>
<!DOCTYPE svg PUBLIC "-//W3C//DTD SVG 1.1//EN" "http://www.w3.org/Graphics/SVG/1.1/DTD/svg11.dtd">
<!-- Creator: CorelDRAW 2019 (64 Bit Versão de avaliação) -->
<svg xmlns="http://www.w3.org/2000/svg" xml:space="preserve" width="58px" height="40px" version="1.1" style="shape-rendering:geometricPrecision; text-rendering:geometricPrecision; image-rendering:optimizeQuality; fill-rule:evenodd; clip-rule:evenodd"
viewBox="0 0 58 40.31"
 xmlns:xlink="http://www.w3.org/1999/xlink"
 xmlns:xodm="http://www.corel.com/coreldraw/odm/2003">
 <defs>
  <style type="text/css">
   <![CDATA[
    .fil0 {fill:#302F2F}
   ]]>
  </style>
 </defs>
 <g id="Camada_x0020_1">
  <metadata id="CorelCorpID_0Corel-Layer"/>
  <path class="fil0" d="M15.37 0.07c-1.93,-0.02 -2.15,3.49 -0.05,3.49l8.41 -0.01 0 2.38 -8.81 0c-1.58,0.1 -2.51,0.94 -2.73,2.59l-0.01 1.42 -3.65 0c-1.66,0.15 -2.52,1.06 -2.61,2.71l-0.02 7.86 -2.34 0 0.01 -8.38c-0.36,-1.96 -3.11,-2.08 -3.56,-0.01l-0.02 20.32c0.31,2.04 3.21,1.97 3.55,0.04l0.02 -8.44 2.33 0 0.03 7.93c-0.09,1.67 0.8,2.57 2.71,2.65l8.78 -0.02 8.45 5.69 17.97 0.04c1.72,0 2.66,-0.9 2.72,-2.8l0.01 -5.64 1.44 0.01 0.02 2.24c0.05,1.54 0.88,2.38 2.5,2.52l3.81 -0.03c3.02,-0.06 3.73,-4.44 3.66,-12.09 -0.06,-6.95 -0.98,-10.52 -3.77,-10.72l-3.76 -0.04c-1.55,0.14 -2.37,0.99 -2.47,2.55l0 2.23 -1.42 -0.02 0.01 -3.7c-0.15,-2.07 -1.17,-3.02 -2.93,-3.01l-4.84 0.02 -0.01 -3.13c-0.15,-1.8 -1.11,-2.64 -2.68,-2.79l-8.86 0 0 -2.36 8.44 -0.02c1.89,-0.01 2.01,-3.28 -0.04,-3.53l-20.29 0.05zm-5.93 30.95l0.03 -17.5 6.28 0 -0.01 -4.04 19.5 0.02 0 5.9 7.76 -0.02 -0.01 6.75 8.54 -0.01 0 -4.76 2.23 -0.01c0.97,5.51 1.04,10.79 -0.01,15.77l-2.21 0.02 -0.01 -4.78 -8.53 0.01 0 8.35 -16.11 0.01 -8.47 -5.69 -8.98 -0.02z"/>
 </g>
</svg>
