<?xml version="1.0" encoding="UTF-8"?>
<!DOCTYPE svg PUBLIC "-//W3C//DTD SVG 1.1//EN" "http://www.w3.org/Graphics/SVG/1.1/DTD/svg11.dtd">
<!-- Creator: CorelDRAW 2019 (64 Bit Versão de avaliação) -->
<svg xmlns="http://www.w3.org/2000/svg" xml:space="preserve" width="61px" height="40px" version="1.1" style="shape-rendering:geometricPrecision; text-rendering:geometricPrecision; image-rendering:optimizeQuality; fill-rule:evenodd; clip-rule:evenodd"
viewBox="0 0 61 39.82"
 xmlns:xlink="http://www.w3.org/1999/xlink"
 xmlns:xodm="http://www.corel.com/coreldraw/odm/2003">
 <defs>
  <style type="text/css">
   <![CDATA[
    .fil0 {fill:#373435}
   ]]>
  </style>
 </defs>
 <g id="Camada_x0020_1">
  <metadata id="CorelCorpID_0Corel-Layer"/>
  <g id="_1992952667504">
   <path class="fil0" d="M36.62 39.85c0.93,-0.06 1.51,-0.5 1.8,-1.24 4.79,-12.28 4.87,-24.63 0,-37.05 -0.36,-0.76 -0.97,-1.15 -1.81,-1.2l-19.83 0.22c-9.81,1.29 -16.52,7.79 -16.79,19.3 -0.28,11.52 5.93,18.15 16.8,19.77l19.86 0.18 -0.03 0.02zm-5.42 -35.65l4.12 -0.02c4.11,11.08 3.87,21.69 -0.01,31.9l-4.12 -0.05c3.63,-10.39 3.64,-21 0.01,-31.83z"/>
   <rect class="fil0" x="43.62" y="0.03" width="14.69" height="3.92" rx="2.65" ry="1.96"/>
   <rect class="fil0" x="43.62" y="35.74" width="14.69" height="3.92" rx="2.65" ry="1.96"/>
   <rect class="fil0" x="46.29" y="23.88" width="14.69" height="3.92" rx="2.65" ry="1.96"/>
   <rect class="fil0" x="46.29" y="12.07" width="14.69" height="3.92" rx="2.65" ry="1.96"/>
  </g>
 </g>
</svg>
