<?xml version="1.0" encoding="UTF-8"?>
<!DOCTYPE svg PUBLIC "-//W3C//DTD SVG 1.1//EN" "http://www.w3.org/Graphics/SVG/1.1/DTD/svg11.dtd">
<!-- Creator: CorelDRAW 2019 (64 Bit Versão de avaliação) -->
<svg xmlns="http://www.w3.org/2000/svg" xml:space="preserve" width="1401px" height="974px" version="1.1" style="shape-rendering:geometricPrecision; text-rendering:geometricPrecision; image-rendering:optimizeQuality; fill-rule:evenodd; clip-rule:evenodd"
viewBox="0 0 1401 974.16"
 xmlns:xlink="http://www.w3.org/1999/xlink"
 xmlns:xodm="http://www.corel.com/coreldraw/odm/2003">
 <defs>
  <style type="text/css">
   <![CDATA[
    .fil0 {fill:#302F2F}
   ]]>
  </style>
 </defs>
 <g id="Camada_x0020_1">
  <metadata id="CorelCorpID_0Corel-Layer"/>
  <g id="_1993049007584">
   <path class="fil0" d="M843.21 947.5c21.4,-1.41 34.65,-11.42 41.25,-28.44 109.99,-282.04 111.83,-565.71 0.15,-851.08 -8.45,-17.35 -22.43,-26.4 -41.72,-27.5l-455.31 5.15c-225.45,29.56 -379.51,178.91 -385.79,443.28 -6.27,264.37 136.32,416.76 385.93,454.06l456.23 4.02 -0.74 0.51zm-124.5 -818.74l94.69 -0.63c94.24,254.57 88.77,498.25 -0.32,732.81l-94.69 -1.25c83.35,-238.65 83.64,-482.28 0.32,-730.93z"/>
   <rect class="fil0" transform="matrix(1.304 -0.349406 0.258819 0.965926 998.009 78.1287)" width="250" height="90" rx="45" ry="45"/>
   <rect class="fil0" transform="matrix(1.304 -0.349406 0.258819 0.965926 998.009 898.274)" width="250" height="90" rx="45" ry="45"/>
   <rect class="fil0" transform="matrix(1.304 -0.349406 0.258819 0.965926 1059.26 625.778)" width="250" height="90" rx="45" ry="45"/>
   <rect class="fil0" transform="matrix(1.304 -0.349406 0.258819 0.965926 1059.26 354.532)" width="250" height="90" rx="45" ry="45"/>
  </g>
 </g>
</svg>
