<?xml version="1.0" encoding="UTF-8"?>
<!DOCTYPE svg PUBLIC "-//W3C//DTD SVG 1.1//EN" "http://www.w3.org/Graphics/SVG/1.1/DTD/svg11.dtd">
<!-- Creator: CorelDRAW 2019 (64 Bit Versão de avaliação) -->
<svg xmlns="http://www.w3.org/2000/svg" xml:space="preserve" width="40px" height="17px" version="1.1" style="shape-rendering:geometricPrecision; text-rendering:geometricPrecision; image-rendering:optimizeQuality; fill-rule:evenodd; clip-rule:evenodd"
viewBox="0 0 40 17.38"
 xmlns:xlink="http://www.w3.org/1999/xlink"
 xmlns:xodm="http://www.corel.com/coreldraw/odm/2003">
 <defs>
  <style type="text/css">
   <![CDATA[
    .fil0 {fill:#302F2F}
   ]]>
  </style>
 </defs>
 <g id="Camada_x0020_1">
  <metadata id="CorelCorpID_0Corel-Layer"/>
  <g id="_1993051629600">
   <path class="fil0" d="M26.3 17.37l-17.27 0.01c-0.56,0.03 -0.81,-0.22 -0.81,-0.7l0 -4.91 -7.65 -3.16c-0.62,-0.32 -0.72,-0.78 -0.44,-1.35l1.95 -4.67c0.34,-0.66 0.84,-0.88 1.56,-0.5l9.19 3.95 2.5 0.02 -0.06 -4 -3.48 -0.05c-1.04,0 -0.95,-1.98 0.03,-1.97l9.06 -0.03c1.06,0 1.32,2.01 0.03,2.02l-3.53 0.03 0.07 3.97 3.98 0.05 2.8 2.65 13.05 -5c0.86,-0.37 2.02,0.74 1.26,1.59l-12.24 12.05zm-18.15 -7.9l0.2 -3.21 -4.75 -2.01 -1.26 2.81 5.81 2.41zm24.95 -1.89l-7.6 7.8 -15.18 -0.02 -0.02 -7.32 10.31 -0.06 3.11 3.04 9.38 -3.44z"/>
   <path class="fil0" d="M37.93 11.35l0.96 1.53 0.93 1.53c0.1,0.25 0.16,0.52 0.16,0.81 0,1.14 -0.92,2.06 -2.06,2.06 -1.15,0 -2.07,-0.92 -2.07,-2.06 0,-0.29 0.06,-0.56 0.16,-0.81 0.23,-0.52 0.65,-1.04 0.96,-1.53l0.96 -1.53z"/>
  </g>
 </g>
</svg>
